<?xml version="1.0" encoding="utf-8"?>
<svg viewBox="0 0 500 500" xmlns="http://www.w3.org/2000/svg">
  <g transform="matrix(-0.934925, 0, 0, 0.922218, 517.349976, 13.408949)" style="">
    <g>
      <g transform="matrix(-1.069604, 0, 0, 1.084342, 1008.527471, 6.264955)">
        <path d="M 875.336 297.622 C 875.178 298.107 832.79 331.5 832.79 331.5 C 824.739 340.212 810.772 342.725 800.343 342.725 C 789.339 342.725 785.376 336.897 785.376 327.197 C 785.376 327.197 783.947 330.125 783.138 282.615 C 782.837 264.92 780.994 264.702 780.994 264.702 C 774.222 230.554 735.827 244.042 736.836 249.274 C 736.836 249.274 731.558 255.858 725.874 255.858 C 720.19 255.858 716.017 252.199 716.017 247.179 L 711.491 241.845 C 688.156 217.62 664.972 242.113 664.972 242.113 C 663.915 245.604 662.252 255.858 656.567 255.858 C 650.883 255.858 648.841 260.859 646.763 247.179 C 646.763 247.179 619.143 218.912 595.887 246.01 C 595.749 246.171 592.997 255.858 587.261 255.858 C 581.577 255.858 578.375 249.886 578.375 249.886 C 567.546 243.515 569.696 245.498 558.536 245.115 C 546.959 244.733 535.173 252.518 535.173 262.472 C 535.173 273.963 533.422 270.186 533.422 327.53 C 533.422 405.974 532.765 414.873 532.765 414.873 C 532.765 424.231 534.59 441.204 547.002 449.883 L 547.836 450.478 L 547.836 463.112 C 547.836 469.621 554.303 474.896 562.282 474.896 L 752.156 474.896 C 760.136 474.896 766.603 469.621 766.603 463.112 L 766.811 448.564 C 767.018 448.223 767.228 447.798 767.645 447.458 L 767.698 447.415 L 848.425 387.136 C 859.116 378.415 884.699 362.554 884.699 351.323 L 917.074 299.776 C 917.021 272.507 881.562 278.507 875.336 297.622 Z" style="fill: rgb(0, 255, 161);"/>
      </g>
      <g transform="matrix(-1.069604, 0, 0, 1.084342, 1008.527471, 6.264955)"/>
      <g transform="matrix(-1.069604, 0, 0, 1.084342, 1008.527471, 6.264955)"/>
      <g transform="matrix(-1.069604, 0, 0, 1.084342, 1008.527471, 6.264955)"/>
      <g transform="matrix(-1.069604, 0, 0, 1.084342, 1008.527471, 6.264955)"/>
      <g transform="matrix(-1.069604, 0, 0, 1.084342, 1008.527471, 6.264955)"/>
      <g transform="matrix(-1.069604, 0, 0, 1.084342, 1008.527471, 6.264955)"/>
      <g transform="matrix(-1.069604, 0, 0, 1.084342, 1008.527471, 6.264955)"/>
      <g transform="matrix(-1.069604, 0, 0, 1.084342, 1008.527471, 6.264955)"/>
      <g transform="matrix(-1.069604, 0, 0, 1.084342, 1008.527471, 6.264955)"/>
      <g transform="matrix(-1.069604, 0, 0, 1.084342, 1008.527471, 6.264955)"/>
      <g transform="matrix(-1.069604, 0, 0, 1.084342, 1008.527471, 6.264955)"/>
      <g transform="matrix(-1.069604, 0, 0, 1.084342, 1008.527471, 6.264955)"/>
      <g transform="matrix(-1.069604, 0, 0, 1.084342, 1008.527471, 6.264955)"/>
      <g transform="matrix(-1.069604, 0, 0, 1.084342, 1008.527471, 6.264955)"/>
      <g transform="matrix(-1.069604, 0, 0, 1.084342, 1008.527471, 6.264955)"/>
    </g>
  </g>
  <g transform="matrix(-0.934925, 0, 0, 0.922218, 523.464844, 11.488846)" style=""/>
  <g transform="matrix(-0.934925, 0, 0, 0.922218, 523.464844, 11.488846)" style=""/>
  <g transform="matrix(-0.934925, 0, 0, 0.922218, 523.464844, 11.488846)" style=""/>
  <g transform="matrix(-0.934925, 0, 0, 0.922218, 523.464844, 11.488846)" style=""/>
  <g transform="matrix(-0.934925, 0, 0, 0.922218, 523.464844, 11.488846)" style=""/>
  <g transform="matrix(-0.934925, 0, 0, 0.922218, 523.464844, 11.488846)" style=""/>
  <g transform="matrix(-0.934925, 0, 0, 0.922218, 523.464844, 11.488846)" style=""/>
  <g transform="matrix(-0.934925, 0, 0, 0.922218, 523.464844, 11.488846)" style=""/>
  <g transform="matrix(-0.934925, 0, 0, 0.922218, 523.464844, 11.488846)" style=""/>
  <g transform="matrix(-0.934925, 0, 0, 0.922218, 523.464844, 11.488846)" style=""/>
  <g transform="matrix(-0.934925, 0, 0, 0.922218, 523.464844, 11.488846)" style=""/>
  <g transform="matrix(-0.934925, 0, 0, 0.922218, 523.464844, 11.488846)" style=""/>
  <g transform="matrix(-0.934925, 0, 0, 0.922218, 523.464844, 11.488846)" style=""/>
  <g transform="matrix(-0.934925, 0, 0, 0.922218, 523.464844, 11.488846)" style=""/>
  <g transform="matrix(-0.934925, 0, 0, 0.922218, 523.464844, 11.488846)" style=""/>
</svg>