<?xml version="1.0" encoding="utf-8"?>
<svg viewBox="0 0 500 500" xmlns="http://www.w3.org/2000/svg">
  <g transform="matrix(-0.934925, 0, 0, 0.922218, 501.426483, 13.815495)" style="">
    <g>
      <g transform="matrix(-1.069604, 0, 0, 1.084342, 1008.527471, 6.264955)">
        <path d="M 869.703 292.842 C 869.282 293.129 841.572 325.208 841.572 325.208 C 841.572 334.907 810.772 342.725 800.343 342.725 C 789.339 342.725 785.376 336.897 785.376 327.197 C 785.376 327.197 785.376 284.7 785.376 237.183 C 785.376 177.116 785.376 107.946 785.376 107.946 C 785.376 79.146 735.99 78.295 735.99 105.989 L 735.677 247.179 C 735.677 252.199 731.558 255.858 725.874 255.858 C 720.19 255.858 716.598 241.354 716.598 241.354 C 716.598 214.724 667.174 213.959 666.952 241.354 C 666.723 269.626 657.729 256.412 656.567 257.643 C 655.405 258.874 646.553 250.442 646.763 247.179 C 646.763 247.179 627.032 223.683 599.037 245.775 C 598.871 245.906 592.997 255.858 587.261 255.858 C 581.577 255.858 581.343 250.215 577.457 247.179 C 577.457 247.179 560.006 240.635 544.247 253.846 C 533.575 262.792 532.56 264.523 532.759 282.432 C 533.631 360.871 532.765 414.873 532.765 414.873 C 532.765 424.231 534.59 441.204 547.002 449.883 L 547.836 450.478 L 547.836 463.112 C 547.836 469.621 554.303 474.896 562.282 474.896 L 752.156 474.896 C 760.136 474.896 766.603 469.621 766.603 463.112 L 766.811 448.564 C 767.018 448.223 767.228 447.798 767.645 447.458 L 767.698 447.415 L 848.425 387.136 C 859.116 378.415 876.01 368.598 876.01 357.367 L 894.052 324.058 C 893.999 296.789 908.976 266.053 869.703 292.842 Z" style="fill: rgb(0, 255, 161);"/>
      </g>
      <g transform="matrix(-1.069604, 0, 0, 1.084342, 1008.527471, 6.264955)"/>
      <g transform="matrix(-1.069604, 0, 0, 1.084342, 1008.527471, 6.264955)"/>
      <g transform="matrix(-1.069604, 0, 0, 1.084342, 1008.527471, 6.264955)"/>
      <g transform="matrix(-1.069604, 0, 0, 1.084342, 1008.527471, 6.264955)"/>
      <g transform="matrix(-1.069604, 0, 0, 1.084342, 1008.527471, 6.264955)"/>
      <g transform="matrix(-1.069604, 0, 0, 1.084342, 1008.527471, 6.264955)"/>
      <g transform="matrix(-1.069604, 0, 0, 1.084342, 1008.527471, 6.264955)"/>
      <g transform="matrix(-1.069604, 0, 0, 1.084342, 1008.527471, 6.264955)"/>
      <g transform="matrix(-1.069604, 0, 0, 1.084342, 1008.527471, 6.264955)"/>
      <g transform="matrix(-1.069604, 0, 0, 1.084342, 1008.527471, 6.264955)"/>
      <g transform="matrix(-1.069604, 0, 0, 1.084342, 1008.527471, 6.264955)"/>
      <g transform="matrix(-1.069604, 0, 0, 1.084342, 1008.527471, 6.264955)"/>
      <g transform="matrix(-1.069604, 0, 0, 1.084342, 1008.527471, 6.264955)"/>
      <g transform="matrix(-1.069604, 0, 0, 1.084342, 1008.527471, 6.264955)"/>
      <g transform="matrix(-1.069604, 0, 0, 1.084342, 1008.527471, 6.264955)"/>
    </g>
  </g>
  <g transform="matrix(-0.934925, 0, 0, 0.922218, 523.464844, 11.488846)" style=""/>
  <g transform="matrix(-0.934925, 0, 0, 0.922218, 523.464844, 11.488846)" style=""/>
  <g transform="matrix(-0.934925, 0, 0, 0.922218, 523.464844, 11.488846)" style=""/>
  <g transform="matrix(-0.934925, 0, 0, 0.922218, 523.464844, 11.488846)" style=""/>
  <g transform="matrix(-0.934925, 0, 0, 0.922218, 523.464844, 11.488846)" style=""/>
  <g transform="matrix(-0.934925, 0, 0, 0.922218, 523.464844, 11.488846)" style=""/>
  <g transform="matrix(-0.934925, 0, 0, 0.922218, 523.464844, 11.488846)" style=""/>
  <g transform="matrix(-0.934925, 0, 0, 0.922218, 523.464844, 11.488846)" style=""/>
  <g transform="matrix(-0.934925, 0, 0, 0.922218, 523.464844, 11.488846)" style=""/>
  <g transform="matrix(-0.934925, 0, 0, 0.922218, 523.464844, 11.488846)" style=""/>
  <g transform="matrix(-0.934925, 0, 0, 0.922218, 523.464844, 11.488846)" style=""/>
  <g transform="matrix(-0.934925, 0, 0, 0.922218, 523.464844, 11.488846)" style=""/>
  <g transform="matrix(-0.934925, 0, 0, 0.922218, 523.464844, 11.488846)" style=""/>
  <g transform="matrix(-0.934925, 0, 0, 0.922218, 523.464844, 11.488846)" style=""/>
  <g transform="matrix(-0.934925, 0, 0, 0.922218, 523.464844, 11.488846)" style=""/>
</svg>