<?xml version="1.0" encoding="utf-8"?>
<svg viewBox="0 0 500 500" xmlns="http://www.w3.org/2000/svg">
  <g transform="matrix(-0.934925, 0, 0, 0.922218, 522.529907, 12.411064)" style="">
    <g>
      <g transform="matrix(-1.069604, 0, 0, 1.084342, 1008.527471, 6.264955)">
        <path d="M 814.632 274.363 C 814.632 274.873 814.632 326.985 814.632 326.985 C 814.632 336.684 810.772 342.725 800.343 342.725 C 789.339 342.725 785.376 336.897 785.376 327.197 C 785.376 327.197 785.376 284.7 785.376 237.183 C 785.376 177.116 785.376 107.946 785.376 107.946 C 785.376 79.146 735.99 78.295 735.99 105.989 L 735.677 247.179 C 735.677 252.199 731.558 255.858 725.874 255.858 C 720.19 255.858 716.017 252.199 716.017 247.179 L 716.598 241.354 C 716.598 214.724 667.174 213.959 666.952 241.354 C 666.723 269.626 666.371 247.179 666.371 247.179 C 666.371 252.199 662.252 255.858 656.567 255.858 C 650.883 255.858 646.763 252.199 646.763 247.179 L 648.683 245.775 C 648.683 218.634 599.037 218.677 599.037 245.775 C 599.037 245.987 597.117 247.179 597.117 247.179 C 597.117 252.199 592.997 255.858 587.261 255.858 C 581.577 255.858 577.457 252.199 577.457 247.179 L 578.551 248.242 C 578.551 238.798 568.382 231.268 557.222 230.885 C 545.645 230.503 533.859 238.288 533.859 248.242 C 533.859 248.284 532.759 225.088 532.759 282.432 C 532.759 360.876 532.765 414.873 532.765 414.873 C 532.765 424.231 534.59 441.204 547.002 449.883 L 547.836 450.478 L 547.836 463.112 C 547.836 469.621 554.303 474.896 562.282 474.896 L 752.156 474.896 C 760.136 474.896 766.603 469.621 766.603 463.112 L 766.811 448.564 C 767.018 448.223 767.228 447.798 767.645 447.458 L 767.698 447.415 L 848.425 387.136 C 859.116 378.415 864.539 368.291 864.539 357.06 L 864.539 274.363 C 864.486 247.094 814.632 247.094 814.632 274.363 Z" style="fill: rgb(47, 255, 0);"/>
      </g>
      <g transform="matrix(-1.069604, 0, 0, 1.084342, 1008.527471, 6.264955)"/>
      <g transform="matrix(-1.069604, 0, 0, 1.084342, 1008.527471, 6.264955)"/>
      <g transform="matrix(-1.069604, 0, 0, 1.084342, 1008.527471, 6.264955)"/>
      <g transform="matrix(-1.069604, 0, 0, 1.084342, 1008.527471, 6.264955)"/>
      <g transform="matrix(-1.069604, 0, 0, 1.084342, 1008.527471, 6.264955)"/>
      <g transform="matrix(-1.069604, 0, 0, 1.084342, 1008.527471, 6.264955)"/>
      <g transform="matrix(-1.069604, 0, 0, 1.084342, 1008.527471, 6.264955)"/>
      <g transform="matrix(-1.069604, 0, 0, 1.084342, 1008.527471, 6.264955)"/>
      <g transform="matrix(-1.069604, 0, 0, 1.084342, 1008.527471, 6.264955)"/>
      <g transform="matrix(-1.069604, 0, 0, 1.084342, 1008.527471, 6.264955)"/>
      <g transform="matrix(-1.069604, 0, 0, 1.084342, 1008.527471, 6.264955)"/>
      <g transform="matrix(-1.069604, 0, 0, 1.084342, 1008.527471, 6.264955)"/>
      <g transform="matrix(-1.069604, 0, 0, 1.084342, 1008.527471, 6.264955)"/>
      <g transform="matrix(-1.069604, 0, 0, 1.084342, 1008.527471, 6.264955)"/>
      <g transform="matrix(-1.069604, 0, 0, 1.084342, 1008.527471, 6.264955)"/>
    </g>
  </g>
  <g transform="matrix(-0.934925, 0, 0, 0.922218, 523.464844, 11.488846)" style=""/>
  <g transform="matrix(-0.934925, 0, 0, 0.922218, 523.464844, 11.488846)" style=""/>
  <g transform="matrix(-0.934925, 0, 0, 0.922218, 523.464844, 11.488846)" style=""/>
  <g transform="matrix(-0.934925, 0, 0, 0.922218, 523.464844, 11.488846)" style=""/>
  <g transform="matrix(-0.934925, 0, 0, 0.922218, 523.464844, 11.488846)" style=""/>
  <g transform="matrix(-0.934925, 0, 0, 0.922218, 523.464844, 11.488846)" style=""/>
  <g transform="matrix(-0.934925, 0, 0, 0.922218, 523.464844, 11.488846)" style=""/>
  <g transform="matrix(-0.934925, 0, 0, 0.922218, 523.464844, 11.488846)" style=""/>
  <g transform="matrix(-0.934925, 0, 0, 0.922218, 523.464844, 11.488846)" style=""/>
  <g transform="matrix(-0.934925, 0, 0, 0.922218, 523.464844, 11.488846)" style=""/>
  <g transform="matrix(-0.934925, 0, 0, 0.922218, 523.464844, 11.488846)" style=""/>
  <g transform="matrix(-0.934925, 0, 0, 0.922218, 523.464844, 11.488846)" style=""/>
  <g transform="matrix(-0.934925, 0, 0, 0.922218, 523.464844, 11.488846)" style=""/>
  <g transform="matrix(-0.934925, 0, 0, 0.922218, 523.464844, 11.488846)" style=""/>
  <g transform="matrix(-0.934925, 0, 0, 0.922218, 523.464844, 11.488846)" style=""/>
</svg>