<?xml version="1.0" encoding="utf-8"?>
<svg viewBox="0 0 500 500" xmlns="http://www.w3.org/2000/svg">
  <g transform="matrix(-0.934925, 0, 0, 0.922218, 522.529907, 12.411064)" style="">
    <g>
      <g transform="matrix(-1.069604, 0, 0, 1.084342, 1008.527471, 6.264955)">
        <path d="M 770.689 280.711 C 770.689 281.221 770.689 333.333 770.689 333.333 C 770.689 343.032 810.772 342.725 800.343 342.725 C 789.339 342.725 785.376 336.897 785.376 327.197 C 785.376 327.197 785.376 284.7 785.376 237.183 C 785.376 177.116 785.376 107.946 785.376 107.946 C 785.376 79.146 735.99 78.295 735.99 105.989 L 735.677 247.179 C 735.677 252.199 731.558 255.858 725.874 255.858 C 720.19 255.858 716.598 241.354 716.598 241.354 C 716.598 214.724 667.174 213.959 666.952 241.354 C 666.723 269.626 662.252 255.858 656.567 255.858 C 650.883 255.858 648.683 245.775 648.683 245.775 C 648.683 218.634 599.037 218.677 599.037 245.775 C 599.037 245.987 592.997 255.858 587.261 255.858 C 581.577 255.858 582.901 254.479 577.457 247.179 C 577.457 247.179 567.026 241.068 555.866 240.685 C 544.289 240.303 535.798 255.607 532.759 282.432 C 523.929 360.378 532.765 414.873 532.765 414.873 C 532.765 424.231 534.59 441.204 547.002 449.883 L 547.836 450.478 L 547.836 463.112 C 547.836 469.621 554.303 474.896 562.282 474.896 L 752.156 474.896 C 760.136 474.896 766.603 469.621 766.603 463.112 L 766.811 448.564 C 767.018 448.223 767.228 447.798 767.645 447.458 L 767.698 447.415 L 804.482 393.484 C 815.173 384.763 816.303 353.441 816.303 342.21 L 801.488 284.017 C 769.38 263.494 770.689 253.442 770.689 280.711 Z" style="fill: rgb(0, 255, 161);"/>
      </g>
      <g transform="matrix(-1.069604, 0, 0, 1.084342, 1008.527471, 6.264955)"/>
      <g transform="matrix(-1.069604, 0, 0, 1.084342, 1008.527471, 6.264955)"/>
      <g transform="matrix(-1.069604, 0, 0, 1.084342, 1008.527471, 6.264955)"/>
      <g transform="matrix(-1.069604, 0, 0, 1.084342, 1008.527471, 6.264955)"/>
      <g transform="matrix(-1.069604, 0, 0, 1.084342, 1008.527471, 6.264955)"/>
      <g transform="matrix(-1.069604, 0, 0, 1.084342, 1008.527471, 6.264955)"/>
      <g transform="matrix(-1.069604, 0, 0, 1.084342, 1008.527471, 6.264955)"/>
      <g transform="matrix(-1.069604, 0, 0, 1.084342, 1008.527471, 6.264955)"/>
      <g transform="matrix(-1.069604, 0, 0, 1.084342, 1008.527471, 6.264955)"/>
      <g transform="matrix(-1.069604, 0, 0, 1.084342, 1008.527471, 6.264955)"/>
      <g transform="matrix(-1.069604, 0, 0, 1.084342, 1008.527471, 6.264955)"/>
      <g transform="matrix(-1.069604, 0, 0, 1.084342, 1008.527471, 6.264955)"/>
      <g transform="matrix(-1.069604, 0, 0, 1.084342, 1008.527471, 6.264955)"/>
      <g transform="matrix(-1.069604, 0, 0, 1.084342, 1008.527471, 6.264955)"/>
      <g transform="matrix(-1.069604, 0, 0, 1.084342, 1008.527471, 6.264955)"/>
    </g>
  </g>
  <g transform="matrix(-0.934925, 0, 0, 0.922218, 523.464844, 11.488846)" style=""/>
  <g transform="matrix(-0.934925, 0, 0, 0.922218, 523.464844, 11.488846)" style=""/>
  <g transform="matrix(-0.934925, 0, 0, 0.922218, 523.464844, 11.488846)" style=""/>
  <g transform="matrix(-0.934925, 0, 0, 0.922218, 523.464844, 11.488846)" style=""/>
  <g transform="matrix(-0.934925, 0, 0, 0.922218, 523.464844, 11.488846)" style=""/>
  <g transform="matrix(-0.934925, 0, 0, 0.922218, 523.464844, 11.488846)" style=""/>
  <g transform="matrix(-0.934925, 0, 0, 0.922218, 523.464844, 11.488846)" style=""/>
  <g transform="matrix(-0.934925, 0, 0, 0.922218, 523.464844, 11.488846)" style=""/>
  <g transform="matrix(-0.934925, 0, 0, 0.922218, 523.464844, 11.488846)" style=""/>
  <g transform="matrix(-0.934925, 0, 0, 0.922218, 523.464844, 11.488846)" style=""/>
  <g transform="matrix(-0.934925, 0, 0, 0.922218, 523.464844, 11.488846)" style=""/>
  <g transform="matrix(-0.934925, 0, 0, 0.922218, 523.464844, 11.488846)" style=""/>
  <g transform="matrix(-0.934925, 0, 0, 0.922218, 523.464844, 11.488846)" style=""/>
  <g transform="matrix(-0.934925, 0, 0, 0.922218, 523.464844, 11.488846)" style=""/>
  <g transform="matrix(-0.934925, 0, 0, 0.922218, 523.464844, 11.488846)" style=""/>
</svg>