<?xml version="1.0" encoding="utf-8"?>
<svg viewBox="0 0 500 500" xmlns="http://www.w3.org/2000/svg">
  <g transform="matrix(-0.934925, 0, 0, 0.922218, 502.631134, -34.827206)" style="">
    <g>
      <g transform="matrix(-1.069604, 0, 0, 1.084342, 1008.527471, 6.264955)">
        <path d="M 785.072 274.489 C 785.072 274.999 785.072 327.111 785.072 327.111 C 785.072 336.81 760.733 345.635 770.783 342.851 C 772.785 342.296 785.376 336.897 785.376 327.197 C 785.376 327.197 785.376 284.7 785.376 237.183 C 785.376 177.116 785.376 107.946 785.376 107.946 C 785.376 79.146 735.99 78.295 735.99 105.989 L 735.677 247.179 C 735.677 252.199 731.558 255.858 725.874 255.858 C 720.19 255.858 716.017 252.199 716.017 247.179 L 716.017 76.466 C 716.017 49.836 666.371 49.07 666.371 76.466 C 666.371 76.764 666.371 247.179 666.371 247.179 C 666.371 252.199 662.252 255.858 656.567 255.858 C 650.883 255.858 646.763 252.199 646.763 247.179 L 645.932 240.39 C 631.984 226.049 601.127 224.968 595.313 251.435 C 593.765 258.482 597.117 247.179 597.117 247.179 C 597.117 252.199 592.997 255.858 587.261 255.858 C 581.577 255.858 577.457 252.199 577.457 247.179 L 577.715 247.378 C 577.715 237.934 564.53 239.14 553.37 238.757 C 541.793 238.375 534.976 250.704 534.976 260.658 C 534.976 260.7 534.495 253.936 534.381 255.658 C 529.222 333.932 532.765 414.873 532.765 414.873 C 532.765 424.231 534.59 441.204 547.002 449.883 L 547.836 450.478 L 547.836 463.112 C 547.836 469.621 554.303 474.896 562.282 474.896 L 752.156 474.896 C 760.136 474.896 766.603 469.621 766.603 463.112 L 766.811 448.564 C 767.018 448.223 767.228 447.798 767.645 447.458 L 767.698 447.415 L 818.865 387.262 C 829.556 378.541 834.979 368.417 834.979 357.186 L 812.682 285.279 C 812.629 258.01 785.072 247.22 785.072 274.489 Z" style="fill: rgb(0, 255, 161);"/>
      </g>
      <g transform="matrix(-1.069604, 0, 0, 1.084342, 1008.527471, 6.264955)"/>
      <g transform="matrix(-1.069604, 0, 0, 1.084342, 1008.527471, 6.264955)"/>
      <g transform="matrix(-1.069604, 0, 0, 1.084342, 1008.527471, 6.264955)"/>
      <g transform="matrix(-1.069604, 0, 0, 1.084342, 1008.527471, 6.264955)"/>
      <g transform="matrix(-1.069604, 0, 0, 1.084342, 1008.527471, 6.264955)"/>
      <g transform="matrix(-1.069604, 0, 0, 1.084342, 1008.527471, 6.264955)"/>
      <g transform="matrix(-1.069604, 0, 0, 1.084342, 1008.527471, 6.264955)"/>
      <g transform="matrix(-1.069604, 0, 0, 1.084342, 1008.527471, 6.264955)"/>
      <g transform="matrix(-1.069604, 0, 0, 1.084342, 1008.527471, 6.264955)"/>
      <g transform="matrix(-1.069604, 0, 0, 1.084342, 1008.527471, 6.264955)"/>
      <g transform="matrix(-1.069604, 0, 0, 1.084342, 1008.527471, 6.264955)"/>
      <g transform="matrix(-1.069604, 0, 0, 1.084342, 1008.527471, 6.264955)"/>
      <g transform="matrix(-1.069604, 0, 0, 1.084342, 1008.527471, 6.264955)"/>
      <g transform="matrix(-1.069604, 0, 0, 1.084342, 1008.527471, 6.264955)"/>
      <g transform="matrix(-1.069604, 0, 0, 1.084342, 1008.527471, 6.264955)"/>
    </g>
  </g>
  <g transform="matrix(-0.934925, 0, 0, 0.922218, 503.566071, -35.749424)" style=""/>
  <g transform="matrix(-0.934925, 0, 0, 0.922218, 503.566071, -35.749424)" style=""/>
  <g transform="matrix(-0.934925, 0, 0, 0.922218, 503.566071, -35.749424)" style=""/>
  <g transform="matrix(-0.934925, 0, 0, 0.922218, 503.566071, -35.749424)" style=""/>
  <g transform="matrix(-0.934925, 0, 0, 0.922218, 503.566071, -35.749424)" style=""/>
  <g transform="matrix(-0.934925, 0, 0, 0.922218, 503.566071, -35.749424)" style=""/>
  <g transform="matrix(-0.934925, 0, 0, 0.922218, 503.566071, -35.749424)" style=""/>
  <g transform="matrix(-0.934925, 0, 0, 0.922218, 503.566071, -35.749424)" style=""/>
  <g transform="matrix(-0.934925, 0, 0, 0.922218, 503.566071, -35.749424)" style=""/>
  <g transform="matrix(-0.934925, 0, 0, 0.922218, 503.566071, -35.749424)" style=""/>
  <g transform="matrix(-0.934925, 0, 0, 0.922218, 503.566071, -35.749424)" style=""/>
  <g transform="matrix(-0.934925, 0, 0, 0.922218, 503.566071, -35.749424)" style=""/>
  <g transform="matrix(-0.934925, 0, 0, 0.922218, 503.566071, -35.749424)" style=""/>
  <g transform="matrix(-0.934925, 0, 0, 0.922218, 503.566071, -35.749424)" style=""/>
  <g transform="matrix(-0.934925, 0, 0, 0.922218, 503.566071, -35.749424)" style=""/>
</svg>