<?xml version="1.0" encoding="utf-8"?>
<svg viewBox="0 0 500 500" xmlns="http://www.w3.org/2000/svg">
  <g transform="matrix(-0.934925, 0, 0, 0.922218, 522.529907, 12.411064)" style="">
    <g>
      <g transform="matrix(-1.069604, 0, 0, 1.084342, 1008.527471, 6.264955)">
        <path d="M 773.681 280.568 C 773.681 281.078 769.674 326.801 769.674 326.801 C 769.674 336.5 776.687 316.363 766.258 316.363 C 755.254 316.363 785.376 336.897 785.376 327.197 C 785.376 327.197 785.376 284.7 785.376 237.183 C 785.376 177.116 785.376 107.946 785.376 107.946 C 785.376 79.146 735.99 78.295 735.99 105.989 L 735.677 247.179 C 735.677 252.199 731.558 255.858 725.874 255.858 C 720.19 255.858 716.017 252.199 716.017 247.179 L 716.017 76.466 C 716.017 49.836 666.371 49.07 666.371 76.466 C 666.371 76.764 666.371 247.179 666.371 247.179 C 666.371 252.199 662.252 255.858 656.567 255.858 C 650.883 255.858 646.763 252.199 646.763 247.179 L 646.763 94.461 C 646.763 67.32 597.117 67.363 597.117 94.461 C 597.117 94.673 597.117 247.179 597.117 247.179 C 597.117 252.199 592.997 255.858 587.261 255.858 C 581.577 255.858 577.457 252.199 577.457 247.179 L 577.457 130.067 C 577.457 120.623 567.288 113.093 556.128 112.71 C 544.551 112.328 532.765 120.113 532.765 130.067 C 532.765 130.109 532.765 190.303 532.765 247.647 C 532.765 326.091 532.765 414.873 532.765 414.873 C 532.765 424.231 534.59 441.204 547.002 449.883 L 547.836 450.478 L 547.836 463.112 C 547.836 469.621 554.303 474.896 562.282 474.896 L 752.156 474.896 C 760.136 474.896 766.603 469.621 766.603 463.112 L 766.811 448.564 C 767.018 448.223 767.228 447.798 767.645 447.458 L 767.698 447.415 L 796.009 390.532 C 806.7 381.811 810.357 373.324 810.357 362.093 L 814.43 281.651 C 814.377 254.382 773.681 253.299 773.681 280.568 Z" style="fill: rgb(0, 255, 161);"/>
      </g>
      <g transform="matrix(-1.069604, 0, 0, 1.084342, 1008.527471, 6.264955)"/>
      <g transform="matrix(-1.069604, 0, 0, 1.084342, 1008.527471, 6.264955)"/>
      <g transform="matrix(-1.069604, 0, 0, 1.084342, 1008.527471, 6.264955)"/>
      <g transform="matrix(-1.069604, 0, 0, 1.084342, 1008.527471, 6.264955)"/>
      <g transform="matrix(-1.069604, 0, 0, 1.084342, 1008.527471, 6.264955)"/>
      <g transform="matrix(-1.069604, 0, 0, 1.084342, 1008.527471, 6.264955)"/>
      <g transform="matrix(-1.069604, 0, 0, 1.084342, 1008.527471, 6.264955)"/>
      <g transform="matrix(-1.069604, 0, 0, 1.084342, 1008.527471, 6.264955)"/>
      <g transform="matrix(-1.069604, 0, 0, 1.084342, 1008.527471, 6.264955)"/>
      <g transform="matrix(-1.069604, 0, 0, 1.084342, 1008.527471, 6.264955)"/>
      <g transform="matrix(-1.069604, 0, 0, 1.084342, 1008.527471, 6.264955)"/>
      <g transform="matrix(-1.069604, 0, 0, 1.084342, 1008.527471, 6.264955)"/>
      <g transform="matrix(-1.069604, 0, 0, 1.084342, 1008.527471, 6.264955)"/>
      <g transform="matrix(-1.069604, 0, 0, 1.084342, 1008.527471, 6.264955)"/>
      <g transform="matrix(-1.069604, 0, 0, 1.084342, 1008.527471, 6.264955)"/>
    </g>
  </g>
  <g transform="matrix(-0.934925, 0, 0, 0.922218, 523.464844, 11.488846)" style=""/>
  <g transform="matrix(-0.934925, 0, 0, 0.922218, 523.464844, 11.488846)" style=""/>
  <g transform="matrix(-0.934925, 0, 0, 0.922218, 523.464844, 11.488846)" style=""/>
  <g transform="matrix(-0.934925, 0, 0, 0.922218, 523.464844, 11.488846)" style=""/>
  <g transform="matrix(-0.934925, 0, 0, 0.922218, 523.464844, 11.488846)" style=""/>
  <g transform="matrix(-0.934925, 0, 0, 0.922218, 523.464844, 11.488846)" style=""/>
  <g transform="matrix(-0.934925, 0, 0, 0.922218, 523.464844, 11.488846)" style=""/>
  <g transform="matrix(-0.934925, 0, 0, 0.922218, 523.464844, 11.488846)" style=""/>
  <g transform="matrix(-0.934925, 0, 0, 0.922218, 523.464844, 11.488846)" style=""/>
  <g transform="matrix(-0.934925, 0, 0, 0.922218, 523.464844, 11.488846)" style=""/>
  <g transform="matrix(-0.934925, 0, 0, 0.922218, 523.464844, 11.488846)" style=""/>
  <g transform="matrix(-0.934925, 0, 0, 0.922218, 523.464844, 11.488846)" style=""/>
  <g transform="matrix(-0.934925, 0, 0, 0.922218, 523.464844, 11.488846)" style=""/>
  <g transform="matrix(-0.934925, 0, 0, 0.922218, 523.464844, 11.488846)" style=""/>
  <g transform="matrix(-0.934925, 0, 0, 0.922218, 523.464844, 11.488846)" style=""/>
</svg>