<?xml version="1.0" encoding="utf-8"?>
<svg version="1.1" id="Capa_1" x="0px" y="0px" viewBox="0 0 490 490" style="enable-background:new 0 0 490 490;" xmlns="http://www.w3.org/2000/svg" xmlns:bx="https://boxy-svg.com">
  <defs>
    <radialGradient gradientUnits="userSpaceOnUse" cx="253.881" cy="164.145" r="121.291" id="gradient-0" gradientTransform="matrix(1.083697, 2.156491, -0.476608, 0.239509, 56.98375, -422.661414)">
      <stop offset="0" style="stop-color: rgb(59, 0, 90);"/>
      <stop offset="1" style="stop-color: rgb(3, 255, 161);"/>
    </radialGradient>
    <radialGradient gradientUnits="userSpaceOnUse" cx="35.15" cy="351.562" r="245" id="gradient-1" gradientTransform="matrix(1.492462, 0.375249, -0.245676, 0.977119, 66.671351, -43.999956)">
      <stop offset="0" style="stop-color: rgb(116, 16, 153);"/>
      <stop offset="1" style="stop-color: rgb(59, 0, 90);"/>
    </radialGradient>
  </defs>
  <g transform="matrix(-1.000069, 0, 0, -1.000069, 491.027496, 513.452026)" bx:origin="0.5 0.495895">
    <g>
      <g>
        <polygon points="123.709,380.589 245.002,256.804 366.291,380.589 328.422,417.571 245.002,332.435 161.578,417.571 &#9;&#9;&#9;" style="fill: url(#gradient-0);"/>
      </g>
      <g>
        <polygon points="0,322.466 245.004,72.429 490,322.466 413.507,397.168 245.004,225.2 76.493,397.168 &#9;&#9;&#9;" style="fill: url(#gradient-1);"/>
      </g>
    </g>
    <g/>
    <g/>
    <g/>
    <g/>
    <g/>
    <g/>
    <g/>
    <g/>
    <g/>
    <g/>
    <g/>
    <g/>
    <g/>
    <g/>
    <g/>
  </g>
  <g transform="matrix(-1.000069, 0, 0, -1.000069, 491.027496, 513.452026)" bx:origin="0 0"/>
  <g transform="matrix(-1.000069, 0, 0, -1.000069, 491.027496, 513.452026)" bx:origin="0 0"/>
  <g transform="matrix(-1.000069, 0, 0, -1.000069, 491.027496, 513.452026)" bx:origin="0 0"/>
  <g transform="matrix(-1.000069, 0, 0, -1.000069, 491.027496, 513.452026)" bx:origin="0 0"/>
  <g transform="matrix(-1.000069, 0, 0, -1.000069, 491.027496, 513.452026)" bx:origin="0 0"/>
  <g transform="matrix(-1.000069, 0, 0, -1.000069, 491.027496, 513.452026)" bx:origin="0 0"/>
  <g transform="matrix(-1.000069, 0, 0, -1.000069, 491.027496, 513.452026)" bx:origin="0 0"/>
  <g transform="matrix(-1.000069, 0, 0, -1.000069, 491.027496, 513.452026)" bx:origin="0 0"/>
  <g transform="matrix(-1.000069, 0, 0, -1.000069, 491.027496, 513.452026)" bx:origin="0 0"/>
  <g transform="matrix(-1.000069, 0, 0, -1.000069, 491.027496, 513.452026)" bx:origin="0 0"/>
  <g transform="matrix(-1.000069, 0, 0, -1.000069, 491.027496, 513.452026)" bx:origin="0 0"/>
  <g transform="matrix(-1.000069, 0, 0, -1.000069, 491.027496, 513.452026)" bx:origin="0 0"/>
  <g transform="matrix(-1.000069, 0, 0, -1.000069, 491.027496, 513.452026)" bx:origin="0 0"/>
  <g transform="matrix(-1.000069, 0, 0, -1.000069, 491.027496, 513.452026)" bx:origin="0 0"/>
  <g transform="matrix(-1.000069, 0, 0, -1.000069, 491.027496, 513.452026)" bx:origin="0 0"/>
</svg>