<?xml version="1.0" encoding="utf-8"?>
<svg version="1.1" id="Layer_1" x="0px" y="0px" viewBox="0 0 512 512" style="enable-background:new 0 0 512 512;" xmlns="http://www.w3.org/2000/svg">
  <circle style="fill: rgb(116, 16, 153);" cx="256" cy="256" r="256"/>
  <path style="fill: rgb(59, 0, 90);" d="M256,0v512c141.385,0,256-114.615,256-256S397.385,0,256,0z"/>
  <polygon style="fill:#F2F2F4;" points="365.904,184.885 327.115,146.096 256,217.211 184.885,146.096 146.096,184.885 217.211,256 &#10;&#9;146.096,327.115 184.885,365.904 256,294.789 327.115,365.904 365.904,327.115 294.789,256 "/>
  <polygon style="fill-opacity: 0.32; fill: rgb(59, 0, 90);" points="365.904,184.885 327.115,146.096 256,217.211 256,294.789 327.115,365.904 365.904,327.115 &#10;&#9;294.789,256 "/>
  <g/>
  <g/>
  <g/>
  <g/>
  <g/>
  <g/>
  <g/>
  <g/>
  <g/>
  <g/>
  <g/>
  <g/>
  <g/>
  <g/>
  <g/>
</svg>