<?xml version="1.0" encoding="utf-8"?>
<svg viewBox="0 0 500 500" xmlns="http://www.w3.org/2000/svg">
  <g transform="matrix(0.969106, 0, 0, 0.981054, 1.729678, -2.100555)" style="">
    <g>
      <circle cx="256" cy="256" r="249.745" style="paint-order: fill; fill: rgb(83, 10, 110);"/>
      <path d="M256,469.3338623c-117.6309357,0-213.3333282-95.7018738-213.3333282-213.3333435    c0-117.6309204,95.7023926-213.333313,213.3333282-213.333313c117.636261,0,213.3333435,95.7024002,213.3333435,213.333313    C469.3333435,373.6319885,373.636261,469.3338623,256,469.3338623z" style="fill: rgb(132, 30, 221);"/>
    </g>
    <path d="M383.9996033,259h-18.3974609C363.0506592,206.8352051,321.1653442,164.9498596,269,162.3989258v-18.3983917   h-10v18.3983917C206.8303986,164.9498596,164.9450684,206.8352051,162.3936005,259h-18.3930664v10h18.3930664   C164.9450684,321.1653442,206.8303986,363.0501404,259,365.6010742v18.398407h10v-18.398407   c52.1653442-2.5509338,94.0506592-44.43573,96.6021423-96.6010742h18.3974609V259z M269,355.6010742v-44.5354614h-10v44.5354614   C212.3424072,353.0725403,174.9242706,315.6538696,172.3936005,269H216.93013v-10h-44.5365295   C174.9242706,212.3466644,212.3424072,174.9279938,259,172.3989258V216.93013h10v-44.5312042   c46.6533203,2.529068,84.071991,39.9482727,86.6021423,86.6010742h-44.5365295v10h44.5365295   C353.071991,315.6528015,315.6533203,353.0725403,269,355.6010742z" opacity="0.3" style=""/>
    <path d="M375.9996033,251h-18.3974609C355.0506592,198.8352051,313.1653442,156.9498596,261,154.3989258   v-18.3983917h-10v18.3983917C198.8303986,156.9498596,156.9450684,198.8352051,154.3936005,251h-18.3930664v10h18.3930664   C156.9450684,313.1653442,198.8303986,355.0501404,251,357.6010742v18.398407h10v-18.398407   c52.1653442-2.5509338,94.0506592-44.43573,96.6021423-96.6010742h18.3974609V251z M261,347.6010742v-44.5354614h-10v44.5354614   C204.3424072,345.0725403,166.9242706,307.6538696,164.3936005,261H208.93013v-10h-44.5365295   C166.9242706,204.3466644,204.3424072,166.9279938,251,164.3989258V208.93013h10v-44.5312042   c46.6533203,2.529068,84.071991,39.9482727,86.6021423,86.6010742h-44.5365295v10h44.5365295   C345.071991,307.6528015,307.6533203,345.0725403,261,347.6010742z" fill="#FFFFFF"/>
  </g>
</svg>