<?xml version="1.0" encoding="utf-8"?>
<svg version="1.1" id="Layer_1" x="0px" y="0px" viewBox="0 0 512 512" style="enable-background:new 0 0 512 512;" xmlns="http://www.w3.org/2000/svg">
  <circle style="fill: rgb(116, 16, 153);" cx="256" cy="256" r="256"/>
  <g>
    <path style="fill: rgb(59, 0, 90);" d="M418.647,453.697L249.775,284.17l-55.094,42.229l-32.571-32.918l-31.03,87.435L261.96,511.924 C321.407,510.566,375.849,488.948,418.647,453.697z"/>
    <path style="fill: rgb(59, 0, 90);" d="M453.441,418.961c35.181-42.577,56.851-96.723,58.458-155.881L380.923,131.084l0,0l-87.435,31.029 l27.996,28.217l-37.733,59.864L453.441,418.961z"/>
  </g>
  <g>
    <polygon style="fill: rgb(235, 255, 245);" points="227.831,262.227 162.109,327.949 162.109,293.481 131.079,293.481 131.079,380.916 &#10;&#9;&#9;218.514,380.916 218.514,349.886 184.058,349.886 249.773,284.17 &#9;"/>
    <polygon style="fill: rgb(235, 255, 245);" points="293.488,131.082 293.488,162.113 327.944,162.114 261.808,228.25 283.75,250.194 &#10;&#9;&#9;349.893,184.051 349.891,218.521 380.921,218.521 380.923,131.084 &#9;"/>
  </g>
  <g>
    <polygon style="fill: rgb(59, 0, 90); fill-opacity: 0.6;" points="238.802,273.199 131.086,380.916 218.514,380.916 218.514,349.886 184.058,349.886 &#10;&#9;&#9;249.773,284.17 &#9;"/>
    <polygon style="fill: rgb(59, 0, 90); fill-opacity: 0.6;" points="272.779,239.223 283.75,250.194 349.893,184.051 349.891,218.521 380.921,218.521 &#10;&#9;&#9;380.923,131.084 380.923,131.084 &#9;"/>
  </g>
  <g/>
  <g/>
  <g/>
  <g/>
  <g/>
  <g/>
  <g/>
  <g/>
  <g/>
  <g/>
  <g/>
  <g/>
  <g/>
  <g/>
  <g/>
</svg>