<?xml version="1.0" encoding="utf-8"?>
<svg version="1.1" id="Layer_1" x="0px" y="0px" viewBox="0 0 484.8 484.8" style="enable-background:new 0 0 484.8 484.8;" xmlns="http://www.w3.org/2000/svg">
  <circle style="fill:#741199;" cx="242.4" cy="242.4" r="242.4"/>
  <path style="fill: rgb(59, 0, 90);" d="M 420.158 407.961 C 474.312 346.883 485.754 293.885 484.492 252.225 L 351.143 117.835 C 351.143 117.835 301.637 112.572 254.952 126.524 L 126.291 201.543 L 96.671 217.328 L 254.734 374.969 L 235.787 404.646 L 225.792 414.092 L 292.406 480.002 C 382.341 456.505 407.475 419.538 420.158 407.961 Z"/>
  <rect x="212.609" y="358.088" transform="matrix(-0.707 0.7072 -0.7072 -0.707 688.5939 490.8939)" style="fill:#EBFFF6;" width="59.999" height="59.999"/>
  <g>
    <polyline style="fill:#D6EAE0;" points="242.4,346.4 284.8,388.8 242.4,430.4 &#9;"/>
    <rect x="242.4" y="274.29" style="fill: rgb(214, 234, 224);" width="64" height="120.567" transform="matrix(1, 0, -0.007086, 1, 2.283771, -55.890385)"/>
  </g>
  <g>
    <path style="fill:#EBFFF6;" d="M394.4,220c0-80.8-71.2-148-152-148C161.6,72,96.8,138.4,96,218.4h76c0.8-40,32-70.4,70.4-70.4 c39.2,0,76,32.8,76,72"/>
    <rect x="242.4" y="218.4" style="fill:#EBFFF6;" width="152" height="48"/>
  </g>
  <g/>
  <g/>
  <g/>
  <g/>
  <g/>
  <g/>
  <g/>
  <g/>
  <g/>
  <g/>
  <g/>
  <g/>
  <g/>
  <g/>
  <g/>
</svg>