<?xml version="1.0" encoding="utf-8"?>
<svg viewBox="0 0 500 500" xmlns="http://www.w3.org/2000/svg">
  <path d="M 484.153 241.324 L 450.252 91.605 C 449.304 87.414 446.743 83.754 443.098 81.375 L 341.395 14.834 C 338.616 13.004 335.345 12.04 332.004 12.04 L 162.502 12.04 C 159.145 12.04 155.873 13.004 153.091 14.834 L 51.389 81.375 C 47.746 83.754 45.185 87.414 44.253 91.605 L 10.352 241.324 C 9.726 244.103 9.827 246.979 10.657 249.709 L 61.509 416.062 C 63.136 421.418 67.407 425.61 72.883 427.222 L 242.387 477.128 L 242.473 477.128 C 245.59 478.06 248.914 478.06 252.033 477.128 L 252.119 477.128 L 421.623 427.222 C 427.079 425.61 431.351 421.418 432.997 416.062 L 483.85 249.709 C 484.679 246.979 484.779 244.103 484.153 241.324 Z M 161.246 255.179 L 94.985 125.108 L 218.404 169.159 L 161.246 255.179 Z M 247.251 186.659 L 308.089 278.206 L 186.417 278.206 L 247.251 186.659 Z M 304.581 311.474 L 247.251 423.996 L 189.925 311.474 L 304.581 311.474 Z M 276.102 169.159 L 399.518 125.108 L 333.244 255.179 L 276.102 169.159 Z M 284.374 130.817 L 336.852 51.846 L 396.433 90.824 L 284.374 130.817 Z M 247.251 125.76 L 193.792 45.309 L 300.713 45.309 L 247.251 125.76 Z M 210.131 130.799 L 98.07 90.824 L 157.65 51.832 L 210.131 130.799 Z M 128.024 264.379 L 46.629 234.436 L 66.985 144.572 L 128.024 264.379 Z M 214.539 434.194 L 104.325 401.739 L 157.346 321.939 L 214.539 434.194 Z M 337.14 321.939 L 390.18 401.739 L 279.968 434.194 L 337.14 321.939 Z M 427.52 144.572 L 447.861 234.436 L 366.466 264.379 L 427.52 144.572 Z M 52.948 272.281 L 130.836 300.944 L 83.493 372.193 L 52.948 272.281 Z M 411.01 372.193 L 363.668 300.944 L 441.541 272.281 L 411.01 372.193 Z" style="fill: rgb(121, 71, 152);"/>
  <rect class="cls-1" data-name="&lt;Transparent Rectangle&gt;" height="532.33" id="_Transparent_Rectangle_" width="542.415" style="fill: rgb(121, 71, 152); visibility: hidden;" x="-23.955" y="-21.232"/>
  <path d="M 493.479 258.522 L 459.578 108.804 C 458.628 104.613 456.068 100.954 452.423 98.574 L 350.72 32.032 C 347.941 30.202 344.671 29.238 341.329 29.238 L 171.827 29.238 C 168.47 29.238 165.199 30.202 162.416 32.032 L 60.714 98.574 C 57.071 100.954 54.511 104.613 53.579 108.804 L 19.678 258.522 C 19.052 261.302 19.152 264.179 19.981 266.907 L 70.834 433.261 C 72.461 438.616 76.733 442.809 82.208 444.422 L 251.712 494.328 L 251.798 494.328 C 254.916 495.258 258.239 495.258 261.358 494.328 L 261.444 494.328 L 430.948 444.422 C 436.405 442.809 440.676 438.616 442.322 433.261 L 493.175 266.907 C 494.004 264.179 494.105 261.302 493.479 258.522 Z M 170.572 272.378 L 104.311 142.307 L 227.729 186.359 L 170.572 272.378 Z M 256.576 203.858 L 317.414 295.404 L 195.742 295.404 L 256.576 203.858 Z M 313.906 328.674 L 256.576 441.194 L 199.25 328.674 L 313.906 328.674 Z M 285.427 186.359 L 408.843 142.307 L 342.569 272.378 L 285.427 186.359 Z M 293.7 148.015 L 346.177 69.045 L 405.758 108.024 L 293.7 148.015 Z M 256.576 142.959 L 203.118 62.508 L 310.038 62.508 L 256.576 142.959 Z M 219.456 147.997 L 107.396 108.024 L 166.975 69.031 L 219.456 147.997 Z M 137.349 281.579 L 55.954 251.636 L 76.311 161.771 L 137.349 281.579 Z M 223.863 451.393 L 113.65 418.938 L 166.671 339.139 L 223.863 451.393 Z M 346.465 339.139 L 399.506 418.938 L 289.292 451.393 L 346.465 339.139 Z M 436.845 161.771 L 457.187 251.636 L 375.792 281.579 L 436.845 161.771 Z M 62.273 289.479 L 140.162 318.143 L 92.818 389.393 L 62.273 289.479 Z M 420.336 389.393 L 372.993 318.143 L 450.865 289.479 L 420.336 389.393 Z" style="fill: rgb(161, 79, 212);"/>
</svg>