<?xml version="1.0" encoding="iso-8859-1"?>
<!-- Generator: Adobe Illustrator 19.0.0, SVG Export Plug-In . SVG Version: 6.00 Build 0)  -->
<svg version="1.1" id="Layer_1" xmlns="http://www.w3.org/2000/svg" xmlns:xlink="http://www.w3.org/1999/xlink" x="0px" y="0px"
	 viewBox="0 0 512 512" style="enable-background:new 0 0 512 512;" xml:space="preserve">
<rect x="477.867" y="65.422" style="fill:#00D7DF;" width="34.133" height="261.689"/>
<path style="fill:#CCF8F3;" d="M73.956,446.578H62.578C28.072,446.578,0,418.505,0,384s28.072-62.578,62.578-62.578h113.778v34.133
	H62.578c-15.684,0-28.444,12.76-28.444,28.444c0,15.684,12.76,28.444,28.444,28.444h11.378c9.411,0,17.067-7.655,17.067-17.067
	v-17.067h85.333v34.133h-54.124C115.187,432.311,96.206,446.578,73.956,446.578z"/>
<rect x="159.289" y="310.044" style="fill:#FF9811;" width="352.711" height="136.533"/>
<rect x="335.644" y="310.044" style="fill:#BF720D;" width="176.356" height="136.533"/>
<rect x="227.556" y="361.244" style="fill:#50412E;" width="216.178" height="85.333"/>
<rect x="335.644" y="361.244" width="108.089" height="85.333"/>
<g>
	<rect x="261.689" y="386.276" style="fill:#FFFFFF;" width="34.133" height="34.133"/>
	<rect x="318.578" y="386.276" style="fill:#FFFFFF;" width="34.133" height="34.133"/>
	<rect x="375.467" y="386.276" style="fill:#FFFFFF;" width="34.133" height="34.133"/>
</g>
<g>
</g>
<g>
</g>
<g>
</g>
<g>
</g>
<g>
</g>
<g>
</g>
<g>
</g>
<g>
</g>
<g>
</g>
<g>
</g>
<g>
</g>
<g>
</g>
<g>
</g>
<g>
</g>
<g>
</g>
</svg>
